# xmcd
#
# Track frame offsets:
#	150
#	30932
#	49195
#	69137
#	81244
#	105012
#	124030
#	149470
#	166894
#	183344
#	203018
#	235833
#	256831
#	279132
#	303008
#
# Disc length: 4345 seconds
#
# Revision: 0
# Processed by: cddbd v1.5.2PL0 Copyright (c) Steve Scherf et al.
# Submitted via: audiograbber 1.83.01
#
DISCID=b010f70f
DTITLE=Igor Flach and Lausitz Blues - Live im Real Music Club 2007
DYEAR=2007
DGENRE=Blues
TTITLE0=On The Road again 
TTITLE1=Rats And Roaches
TTITLE2=Crawfish
TTITLE3=If This Is Love
TTITLE4=Dead Flowers
TTITLE5=Angel Of Mercy
TTITLE6=Mojo Boogie
TTITLE7=Cajun Moon
TTITLE8=Dark Hollow
TTITLE9=John Barleycorn
TTITLE10=One Step Ahead Of The Blues
TTITLE11=Going Up The Country
TTITLE12=Hard To Be
TTITLE13=Mystery Train
TTITLE14=Rollin And Tumblin
EXTD=
EXTT0=
EXTT1=
EXTT2=
EXTT3=
EXTT4=
EXTT5=
EXTT6=
EXTT7=
EXTT8=
EXTT9=
EXTT10=
EXTT11=
EXTT12=
EXTT13=
EXTT14=
PLAYORDER=
